<svg width="825" height="485" viewBox="0 0 825 485" fill="none" xmlns="http://www.w3.org/2000/svg">
<path d="M226.309 214.829L225.9 212.656L225.477 210.406L224.899 208.293L223.613 205.936L222.316 204.161L221.035 202.795L219.843 201.895L218.341 201.27L216.995 200.838L214.859 200.687L212.375 201.239L207.86 202.845L201.323 206.495L196.279 209.448L192.617 211.744L188.154 214.904L181.553 219.818L172.291 226.59L164.01 231.854L155.544 237.1L144.525 243.172L135.969 247.291L122.39 253.197L113.35 256.992L101.5 261.206L90.6896 264.223L85.5215 265.233L81.7496 265.664L77.2713 266.181L74.9139 266.771L72.6276 267.418L70.9348 268.02L69.4968 268.697L68.3848 269.507L67.2474 270.822L66.5197 272.074L66.187 273.186L66.0109 274.491L66.0877 275.54L66.3611 276.353L67.2572 277.277L68.195 278.102L69.1329 278.928L70.027 279.52L71.4309 280.263L73.3719 280.98L75.2398 281.309L79.2161 281.965L83.4161 282.21L87.2902 282.322L90.7528 282.167L98.0165 281.736L102.58 281.355L106.664 280.979L112.059 280.219L117.553 279.341L123.118 278.521L130.715 276.978L138.537 275.356L150.506 272.092L171.666 264.566L185.272 258.485L200.58 250.888L206.033 247.872L211.768 244.756L215.882 242.299L219.751 239.185L221.687 236.675L222.917 234.25L224.559 229.858L225.79 225.197L226.465 219.824L226.309 214.829Z" fill="#F4F4F4"/>
<path d="M219.054 226.517L218.186 227.985L217.906 228.415L217.823 228.611L217.825 228.941L217.912 229.407L218.041 229.775L218.284 230.103L218.553 230.255L218.85 230.232L219.019 230.172L219.118 230.054L219.858 228.549L220.54 226.734L220.845 225.797L221.178 224.685L221.467 223.34L221.756 221.996L221.945 220.438L222.104 218.726L222.178 216.878L222.196 215.05L222.13 213.418L222.04 212.622L221.88 211.768L221.706 211.167L221.577 210.799L221.462 210.509L220.805 209.253L220.863 209.563L221.113 211.213L221.232 212.164L221.279 213.058L221.273 214.302L221.202 216.811L220.936 219.555L220.624 221.736L220.169 223.802L219.738 225.032L219.054 226.517Z" fill="#050402"/>
<path d="M197.823 246.155L205.922 241.204L208.684 239.56L211.612 237.525L212.386 236.836L213.284 235.854C213.526 235.527 213.209 235.057 212.919 235.313L211.984 236.137C211.966 236.152 211.948 236.166 211.929 236.178L209.859 237.486L208.295 238.456L205.674 239.885L198.67 243.618L194.95 245.604L189.848 248.246L180.642 252.431L169.671 257.161L141.388 267.469L130.307 270.333L121.921 272.157L115.524 273.356L110.016 274.156L101.132 275.577L92.9401 276.835L83.7559 277.617L91.5605 277.822L97.7209 277.287L102.962 276.665L107.906 276.065L112.949 275.348L117.95 274.729L124.572 273.45L132.62 271.746L138.394 270.438L142.685 269.243L152.278 265.831L166.892 260.633L170.151 259.391L179.274 255.402L189.31 250.507L194.004 248.258L197.823 246.155Z" fill="#050402"/>
<ellipse cx="3.88648" cy="3.53354" rx="3.88648" ry="3.53354" transform="matrix(0.19901 1.05828 0.846378 -0.301027 74.291 271.463)" fill="#050402"/>
<ellipse cx="1.83325" cy="1.66676" rx="1.83325" ry="1.66676" transform="matrix(0.19901 1.05828 0.846378 -0.301027 76.2793 273.074)" fill="#F4F4F4"/>
<path d="M88.7516 99.9346L96.8928 98.1031L100.195 97.888L103.564 97.9474L91.0854 101.425L90.2515 101.851L89.5195 102.489L88.664 103.604L88.12 104.952L83.3505 195.241L83.8829 201.204L84.0235 202.78L84.4153 203.913L85.1602 204.815L85.9769 205.59L87.1008 206.086L88.0868 206.433L88.8432 206.534L97.6891 205.155L98.9321 204.659L100.273 203.862L101.394 202.93L102.746 201.331L101.464 203.718L100.664 204.995L100.096 205.605L99.2823 206.256L97.824 207.13L97.2254 207.403L96.6628 207.612L90.1321 209.343L89.4518 209.629L88.8274 210.077L88.269 210.8L87.8944 211.72L87.7753 212.71L87.8197 213.674L87.9316 220.507L88.1525 226.238L88.3175 231.806L88.3576 238.766L88.478 246.626L88.129 256.721L88.1092 257.068L87.817 257.735L86.2229 258.96L83.8517 260.45L82.025 261.3L80.1984 262.151L79.6935 262.096L79.2085 261.694L78.976 261.32L78.7632 260.598L78.6172 259.427L78.1036 248.093L77.897 239.733L78.1583 232.893L78.7139 224.234L79.1045 216.516L79.5869 208.897L80.0592 201.165L80.5215 193.32L81.1762 183.445L81.9356 171.953L82.919 157.853L83.6326 146.312L84.4725 132.465L85.0482 120.775L85.6799 109.247L85.9671 105.487L86.2714 103.78L86.7135 102.22L87.124 101.237L87.7541 100.389L88.2249 100.081L88.7516 99.9346Z" fill="#F4F4F4"/>
<path d="M82.2637 210.043L86.0342 211.347L85.239 213.138L84.3821 215.167L83.6371 217.52L83.0759 220.07L81.059 234.687L82.2637 210.043Z" fill="#050402"/>
<path d="M106.107 99.4594L105.136 98.8238L106.085 100.148L106.62 101.029L106.946 101.887L107.052 102.612L103.323 197.579L107.967 103.086L107.886 102.185L107.54 101.102L107.061 100.383L106.107 99.4594Z" fill="#F4F4F4"/>
<path d="M88.6412 166.137L89.0582 115.929L84.4955 195.047L84.4668 197.051L84.5715 198.689L84.7481 200.201L84.982 200.961L85.3136 201.419L85.8087 201.849L86.3298 202.104L91.2514 202.815L90.1479 189.524L88.8736 174.321L88.6412 166.137Z" fill="#F4F4F4"/>
<path d="M92.7903 202.841L89.7019 174.296L94.3892 200.287L94.5715 201.398L94.6834 201.722L94.8772 202.032L95.1528 202.328L95.4183 202.512L95.592 202.596L96.9972 202.987L97.2526 203.058L97.7536 203.088L98.1267 203.082L98.4081 202.977L98.1009 203.258L97.7837 203.426L97.4206 203.544L97.0474 203.55L92.7903 202.841Z" fill="#F4F4F4"/>
<path d="M86.615 289.707L87.0526 285.147L86.7424 285.393L85.8776 285.795L85.0783 285.861L84.279 285.927L83.4797 285.993L82.4359 285.969L81.1474 285.855L79.9244 285.404L79.2562 284.798L80.0986 287.682L80.2044 288.089L80.5302 290.047L80.7015 291.765L80.8057 293.136L80.5221 297.655L80.0487 299.944L79.3722 302.158L78.6134 304.366L77.6514 306.5L76.8791 308.081L75.9372 309.763L75.4956 310.407L74.5789 311.522L73.7932 312.478L73.2156 313.395L72.6079 314.991L72.3644 315.822L72.3443 316.275L72.3678 316.674L72.5945 317.147L72.9472 317.575L73.3434 317.949L73.7011 318.263L74.3056 318.597L74.8714 318.872L75.5246 319.041L76.1828 319.096L76.846 319.038L77.432 318.86L78.4007 318.431L78.6962 318.285L78.8222 318.239L78.9481 318.193L79.0354 318.087L79.6029 317.396L80.3315 315.867L80.6387 314.53L81.0769 313.034L82.2437 310.009L83.2645 307.483L83.5028 306.765L83.7513 305.82L84.3708 303.033L85.1513 299.408L85.811 295.715L86.615 289.707Z" fill="#F4F4F4"/>
<path d="M73.1573 316.569L73.0951 316.11L73.1152 315.657L73.4745 315.006L74.0319 314.542L74.5793 314.304L75.6489 314.394L76.6361 314.477L77.4152 314.599L78.2665 314.955L78.871 315.289L79.1464 315.596L79.3344 316.01L79.2807 316.289L79.1884 316.509L78.7519 317.04L78.0685 317.55L76.9839 317.799L76.3593 317.917L75.7397 317.922L74.9992 317.86L74.4283 317.698C74.2946 317.611 74.0029 317.424 73.9061 317.37C73.8094 317.317 73.5726 317.134 73.4662 317.049L73.1573 316.569Z" fill="#050402"/>
<path d="M349.637 226.83L350.831 228.36L352.067 229.946L353.38 231.301L355.386 232.339L357.173 232.877L358.786 233.083L360.144 232.961L361.655 232.378L362.959 231.748L364.819 230.298L366.698 227.995L369.879 223.306L373.967 215.396L377.067 209.179L379.258 204.537L381.787 198.574L385.434 189.551L390.6 176.996L395.528 166.437L400.618 155.758L407.54 142.495L413.147 132.697L422.292 117.683L428.433 107.803L436.78 95.4923L444.719 84.9593L448.683 80.2885L451.696 77.138L455.271 73.3933L457.029 71.1538L458.704 68.9182L459.897 67.1595L460.845 65.526L461.467 64.0216L461.912 62.0719L462.037 60.478L461.883 59.2943L461.522 58.064L461.047 57.2361L460.499 56.752L459.382 56.6355L458.269 56.6322L457.155 56.629L456.17 56.7897L454.695 57.2008L452.778 58.0302L451.074 59.1329L447.464 61.5181L443.827 64.415L440.515 67.1829L437.656 69.8724L431.698 75.603L427.998 79.297L424.701 82.6313L420.447 87.2592L416.156 92.0591L411.783 96.863L405.979 103.777L400.016 110.926L391.197 122.522L376.29 144.506L367.191 159.688L357.249 177.407L353.828 183.98L350.208 190.846L347.699 195.957L345.652 201.443L345 204.991L344.91 207.944L345.241 212.862L346.024 217.702L347.554 222.733L349.637 226.83Z" fill="#F4F4F4"/>
<path d="M351.188 211.611L351.347 209.732L351.415 209.162L351.409 208.935L351.278 208.658L351.022 208.33L350.769 208.115L350.437 208.018L350.15 208.088L349.909 208.327L349.79 208.503L349.753 208.675L349.716 210.491L349.85 212.526L349.959 213.542L350.113 214.726L350.394 216.073L350.676 217.421L351.125 218.874L351.66 220.436L352.319 222.049L353.018 223.604L353.712 224.931L354.099 225.537L354.567 226.138L354.948 226.517L355.201 226.731L355.411 226.892L356.457 227.465L356.286 227.246L355.431 226.04L354.959 225.325L354.57 224.607L354.089 223.552L353.168 221.385L352.321 218.873L351.732 216.803L351.308 214.725L351.192 213.369L351.188 211.611Z" fill="#050402"/>
<path d="M361.423 179.362L356.526 189.522L354.84 192.949L353.165 196.829L352.782 197.982L352.407 199.474L351.835 202.905L353.407 198.235L354.659 195.566L355.598 193.593L357.251 190.451L361.699 182.127L364.061 177.704L367.332 171.705L373.461 161.372L380.866 149.277L400.693 119.684L408.919 109.081L415.279 101.346L420.206 95.6078L424.539 90.8626L431.476 83.1L437.894 75.9861L445.334 68.5396L438.672 74.1339L433.685 79.1373L429.508 83.5348L425.572 87.6938L421.599 92.0246L417.624 96.2423L412.538 102.215L406.416 109.598L402.057 114.968L398.906 119.146L392.148 129.112L381.853 144.295L379.59 147.75L373.455 157.856L366.902 169.4L363.822 174.766L361.423 179.362Z" fill="#050402"/>
<ellipse cx="3.39896" cy="4.00471" rx="3.39896" ry="4.00471" transform="matrix(-0.664682 -0.852418 -0.526071 0.775839 455.721 66.7363)" fill="#050402"/>
<ellipse cx="1.60328" cy="1.88902" rx="1.60328" ry="1.88902" transform="matrix(-0.664682 -0.852418 -0.526071 0.775839 453.414 66.8462)" fill="#F4F4F4"/>
<path d="M510.541 222.087L504.39 229.648L501.689 232.269L498.824 234.708L507.99 222.555L508.527 221.579L508.895 220.5L509.181 218.928L509.113 217.389L477.861 137.715L475.082 133.08L474.348 131.855L473.575 131.189L472.594 130.978L471.602 130.928L470.461 131.34L469.493 131.776L468.816 132.25L461.894 139.95L461.04 141.286L460.22 142.949L459.639 144.563L459.123 146.911L459.272 143.951L459.447 142.283L459.688 141.349L460.12 140.198L461.009 138.383L461.407 137.711L461.8 137.119L466.631 130.833L467.093 130.089L467.445 129.25L467.634 128.228L467.59 127.175L467.304 126.252L466.89 125.472L464.126 119.791L461.7 115.122L459.386 110.547L456.633 104.707L453.46 98.1665L449.811 89.3949L449.692 89.0873L449.678 88.309L450.543 86.0978L451.961 83.0891L453.17 81.0223L454.378 78.9554L454.825 78.6285L455.391 78.6093L455.734 78.753L456.195 79.2044L456.776 80.0842L461.637 89.2639L465.077 96.1616L467.529 102.123L470.444 109.837L473.13 116.635L475.7 123.418L478.322 130.287L480.997 137.245L484.303 146.058L488.152 156.311L492.832 168.929L496.739 179.191L501.44 191.49L505.522 201.774L509.493 211.963L510.72 215.347L511.13 217.011L511.367 218.653L511.404 219.786L511.205 220.967L510.928 221.575L510.541 222.087Z" fill="#F4F4F4"/>
<path d="M472.995 124.427L469.306 126.113L469.277 124.015L469.207 121.671L468.916 119.136L468.393 116.57L464.383 102.752L472.995 124.427Z" fill="#050402"/>
<path d="M496.088 235.313L497.155 235.132L495.837 234.716L495.042 234.369L494.432 233.885L494.059 233.353L460.101 150.503L493.103 233.629L493.522 234.329L494.237 234.987L494.922 235.239L496.088 235.313Z" fill="#F4F4F4"/>
<path d="M484.769 166.171L504.033 208.824L476.97 138.725L476.212 137.014L475.484 135.71L474.744 134.565L474.25 134.097L473.791 133.956L473.205 133.959L472.666 134.129L468.238 137.166L474.361 147.56L481.376 159.44L484.769 166.171Z" fill="#F4F4F4"/>
<path d="M466.93 138.28L480.687 160.073L466.579 141.616L465.991 140.814L465.77 140.623L465.486 140.505L465.138 140.459L464.842 140.5L464.663 140.557L463.325 141.266L463.082 141.395L462.647 141.74L462.335 142.02L462.139 142.317L462.288 141.853L462.49 141.477L462.75 141.109L463.063 140.828L466.93 138.28Z" fill="#F4F4F4"/>
<path d="M438.2 60.4551L439.613 64.6241L439.778 64.1873L440.35 63.2091L440.999 62.5629L441.647 61.9166L442.295 61.2703L443.185 60.5194L444.316 59.6637L445.524 59.1401L446.325 59.1578L444.487 57.3474L444.239 57.0828L443.199 55.6721L442.384 54.3498L441.76 53.27L440.233 49.2492L439.739 46.9694L439.444 44.6018L439.222 42.1792L439.199 39.6688L439.233 37.7641L439.37 35.6503L439.491 34.7806L439.828 33.1625L440.117 31.7756L440.246 30.5757L440.136 28.7808L440.016 27.8998L439.856 27.5032L439.68 27.1837L439.304 26.952L438.84 26.8523L438.36 26.8297L437.935 26.8291L437.295 26.9934L436.71 27.1798L436.093 27.5203L435.517 27.96L434.98 28.4988L434.555 29.0818L433.906 30.16L433.713 30.501L433.625 30.633L433.537 30.765L433.505 30.9191L433.296 31.9208L433.279 33.7485L433.542 35.1031L433.757 36.6889L433.955 40.1024L434.081 42.9873L434.161 43.7691L434.32 44.7492L434.887 47.5576L435.645 51.192L436.531 54.7936L438.2 60.4551Z" fill="#F4F4F4"/>
<path d="M439.056 27.8546L439.288 28.1962L439.447 28.5928L439.399 29.4075L439.11 30.2109L438.741 30.816L437.804 31.5304L436.939 32.1899L436.234 32.6625L435.377 32.9916L434.737 33.156L434.384 33.1004L434.064 32.8908L434 32.6155L433.993 32.3622L434.153 31.5917L434.53 30.6563L435.348 29.6445L435.828 29.0836L436.349 28.6218L436.998 28.1272L437.542 27.8416C437.689 27.8161 438.008 27.7586 438.111 27.7323C438.213 27.706 438.485 27.685 438.607 27.6779L439.056 27.8546Z" fill="#050402"/>
<path d="M506.579 255.532L505.338 254.074L504.053 252.565L502.698 251.29L500.662 250.373L498.859 249.943L497.241 249.834L495.888 250.037L494.397 250.71L493.115 251.418L491.302 252.978L489.497 255.391L486.469 260.267L482.636 268.414L479.736 274.812L477.694 279.581L475.356 285.69L471.998 294.923L467.236 307.776L462.647 318.62L457.901 329.595L451.407 343.26L446.116 353.385L437.456 368.934L431.634 379.172L423.685 391.972L416.087 402.971L412.275 407.875L409.365 411.204L405.912 415.159L404.227 417.502L402.624 419.836L401.489 421.665L400.593 423.353L400.02 424.894L399.637 426.868L399.563 428.468L399.754 429.641L400.154 430.849L400.655 431.648L401.218 432.098L402.337 432.148L403.449 432.084L404.562 432.021L405.542 431.801L407.001 431.302L408.89 430.358L410.558 429.154L414.088 426.555L417.631 423.442L420.851 420.479L423.623 417.62L429.393 411.537L432.973 407.625L436.161 404.096L440.264 399.217L444.398 394.165L448.615 389.103L454.194 381.847L459.925 374.348L468.368 362.233L482.563 339.377L491.172 323.663L500.543 305.365L503.752 298.593L507.15 291.516L509.495 286.259L511.366 280.655L511.905 277.072L511.901 274.116L511.414 269.222L510.479 264.434L508.791 259.5L506.579 255.532Z" fill="#F4F4F4"/>
<path d="M505.513 270.829L505.414 272.716L505.365 273.29L505.378 273.516L505.517 273.785L505.783 274.098L506.042 274.297L506.378 274.374L506.662 274.287L506.895 274.034L507.009 273.851L507.04 273.677L507.019 271.86L506.821 269.835L506.68 268.827L506.489 267.653L506.165 266.324L505.841 264.995L505.346 263.57L504.762 262.041L504.052 260.469L503.304 258.958L502.569 257.673L502.164 257.092L501.676 256.519L501.284 256.164L501.024 255.964L500.809 255.817L499.747 255.307L499.924 255.515L500.817 256.669L501.311 257.355L501.723 258.049L502.236 259.074L503.225 261.184L504.151 263.642L504.805 265.675L505.294 267.726L505.454 269.073L505.513 270.829Z" fill="#050402"/>
<path d="M496.312 303.662L500.882 293.218L502.458 289.693L504.008 285.716L504.355 284.542L504.681 283.028L505.145 279.567L503.722 284.326L502.556 287.067L501.68 289.095L500.129 292.333L495.949 300.916L493.729 305.477L490.652 311.666L484.856 322.357L477.842 334.885L458.973 365.639L451.091 376.726L444.982 384.835L440.242 390.863L436.063 395.863L429.379 404.035L423.193 411.527L415.996 419.413L422.475 413.424L427.298 408.126L431.332 403.482L435.132 399.091L438.963 394.526L442.801 390.074L447.693 383.802L453.575 376.059L457.759 370.432L460.775 366.069L467.21 355.707L477.014 339.921L479.165 336.334L484.974 325.869L491.154 313.943L494.062 308.398L496.312 303.662Z" fill="#050402"/>
<ellipse cx="3.36814" cy="4.03066" rx="3.36814" ry="4.03066" transform="matrix(0.697409 0.81916 0.497737 -0.801464 405.674 421.837)" fill="#050402"/>
<ellipse cx="1.58875" cy="1.90126" rx="1.58875" ry="1.90126" transform="matrix(0.697409 0.81916 0.497737 -0.801464 407.977 421.589)" fill="#F4F4F4"/>
<path d="M345.98 269.921L351.885 261.999L354.5 259.218L357.285 256.609L348.513 269.301L348.008 270.308L347.674 271.408L347.439 272.996L347.555 274.53L381.305 352.253L384.228 356.717L385 357.897L385.794 358.516L386.78 358.667L387.773 358.658L388.9 358.178L389.853 357.685L390.514 357.17L397.185 349.063L397.997 347.676L398.762 345.966L399.292 344.318L399.733 341.942L399.678 344.908L399.556 346.585L399.344 347.533L398.949 348.708L398.12 350.575L397.743 351.27L397.369 351.885L392.742 358.455L392.304 359.226L391.979 360.085L391.823 361.118L391.9 362.167L392.215 363.072L392.654 363.826L395.595 369.336L398.166 373.855L400.624 378.287L403.559 383.956L406.936 390.3L410.861 398.844L410.989 399.145L411.028 399.921L410.233 402.182L408.912 405.273L407.77 407.411L406.629 409.548L406.192 409.901L405.627 409.955L405.281 409.832L404.806 409.408L404.198 408.564L399.05 399.685L395.394 393L392.755 387.191L389.599 379.659L386.7 373.029L383.917 366.407L381.079 359.701L378.186 352.911L374.604 344.305L370.433 334.292L365.358 321.966L361.129 311.949L356.042 299.944L351.638 289.914L347.348 279.973L346.015 276.666L345.552 275.028L345.264 273.402L345.19 272.273L345.352 271.08L345.609 270.457L345.98 269.921Z" fill="#F4F4F4"/>
<path d="M386.588 365.235L390.221 363.33L390.317 365.423L390.461 367.762L390.832 370.277L391.436 372.808L395.88 386.373L386.588 365.235Z" fill="#050402"/>
<path d="M359.998 255.842L358.938 256.087L360.267 256.423L361.073 256.722L361.698 257.169L362.087 257.678L398.641 338.412L363.034 257.345L362.593 256.671L361.857 256.056L361.165 255.846L359.998 255.842Z" fill="#F4F4F4"/>
<path d="M373.5 324.239L352.901 282.782L382.162 351.191L382.974 352.855L383.743 354.114L384.518 355.213L385.026 355.651L385.489 355.765L386.074 355.727L386.607 355.524L390.935 352.224L384.488 342.208L377.104 330.759L373.5 324.239Z" fill="#F4F4F4"/>
<path d="M392.207 351.032L377.772 330.086L392.452 347.679L393.064 348.445L393.291 348.622L393.579 348.723L393.928 348.748L394.222 348.689L394.4 348.622L395.714 347.834L395.953 347.69L396.376 347.32L396.679 347.02L396.866 346.713L396.731 347.185L396.541 347.572L396.293 347.956L395.99 348.255L392.207 351.032Z" fill="#F4F4F4"/>
<path d="M423.379 427.06L421.836 422.98L421.684 423.426L421.144 424.438L420.516 425.122L419.889 425.807L419.262 426.492L418.397 427.295L417.294 428.218L416.104 428.813L415.303 428.844L417.197 430.542L417.453 430.792L418.536 432.139L419.393 433.411L420.051 434.452L421.703 438.378L422.27 440.625L422.639 442.973L422.938 445.38L423.04 447.887L423.067 449.792L422.997 451.912L422.904 452.788L422.618 454.425L422.373 455.828L422.282 457.034L422.45 458.821L422.597 459.694L422.77 460.08L422.955 460.389L423.339 460.598L423.806 460.67L424.286 460.663L424.71 460.638L425.345 460.436L425.923 460.215L426.528 459.837L427.091 459.364L427.61 458.793L428.016 458.185L428.63 457.069L428.811 456.717L428.895 456.58L428.979 456.442L429.006 456.287L429.183 455.273L429.143 453.446L428.837 452.109L428.571 450.537L428.266 447.139L428.048 444.264L427.944 443.488L427.753 442.519L427.098 439.747L426.226 436.161L425.226 432.616L423.379 427.06Z" fill="#F4F4F4"/>
<path d="M423.559 459.681L423.316 459.354L423.144 458.967L423.167 458.151L423.43 457.331L423.779 456.704L424.693 455.934L425.536 455.223L426.225 454.709L427.071 454.329L427.706 454.126L428.059 454.16L428.386 454.351L428.458 454.622L428.474 454.874L428.338 455.654L427.991 456.611L427.207 457.671L426.744 458.26L426.239 458.753L425.606 459.286L425.071 459.604C424.925 459.638 424.608 459.715 424.507 459.747C424.405 459.779 424.135 459.817 424.012 459.831L423.559 459.681Z" fill="#050402"/>
<path d="M739.289 217.567L738.88 215.394L738.457 213.143L737.879 211.03L736.593 208.673L735.296 206.899L734.016 205.533L732.823 204.632L731.321 204.007L729.975 203.575L727.84 203.424L725.355 203.977L720.841 205.582L714.303 209.232L709.259 212.185L705.597 214.481L701.135 217.641L694.534 222.556L685.271 229.327L676.99 234.591L668.525 239.837L657.506 245.909L648.949 250.028L635.37 255.934L626.331 259.729L614.481 263.943L603.67 266.961L598.502 267.971L594.73 268.402L590.252 268.918L587.894 269.508L585.608 270.156L583.915 270.758L582.477 271.435L581.365 272.244L580.228 273.559L579.5 274.812L579.167 275.924L578.991 277.228L579.068 278.277L579.342 279.091L580.238 280.014L581.176 280.839L582.113 281.665L583.007 282.258L584.411 283L586.352 283.717L588.22 284.047L592.197 284.702L596.397 284.947L600.271 285.06L603.733 284.904L610.997 284.474L615.561 284.092L619.644 283.716L625.04 282.956L630.534 282.079L636.099 281.258L643.695 279.716L651.517 278.093L663.486 274.83L684.647 267.303L698.253 261.222L713.561 253.625L719.014 250.609L724.749 247.493L728.862 245.037L732.732 241.922L734.668 239.412L735.897 236.987L737.54 232.595L738.77 227.935L739.446 222.561L739.289 217.567Z" fill="#F4F4F4"/>
<path d="M732.035 229.254L731.167 230.722L730.887 231.153L730.803 231.348L730.805 231.679L730.893 232.144L731.022 232.512L731.264 232.84L731.534 232.992L731.83 232.97L732 232.91L732.098 232.792L732.838 231.287L733.52 229.471L733.826 228.534L734.159 227.422L734.448 226.078L734.737 224.733L734.925 223.176L735.085 221.463L735.159 219.615L735.176 217.788L735.11 216.155L735.021 215.359L734.86 214.505L734.687 213.905L734.558 213.537L734.443 213.246L733.785 211.99L733.843 212.3L734.093 213.95L734.212 214.902L734.26 215.795L734.253 217.04L734.183 219.548L733.916 222.293L733.604 224.473L733.15 226.539L732.719 227.769L732.035 229.254Z" fill="#050402"/>
<path d="M710.804 248.892L718.903 243.941L721.664 242.297L724.593 240.262L725.366 239.573L726.265 238.591L728.088 236.121L724.938 238.897L722.839 240.223L721.276 241.193L718.655 242.622L711.651 246.355L707.931 248.34L702.829 250.983L693.622 255.168L682.652 259.898L654.368 270.206L643.288 273.07L634.901 274.894L628.505 276.093L622.996 276.893L614.112 278.314L605.921 279.571L596.736 280.354L604.541 280.559L610.701 280.024L615.942 279.401L620.887 278.802L625.929 278.085L630.93 277.465L637.553 276.186L645.6 274.483L651.375 273.175L655.665 271.98L665.258 268.568L679.873 263.37L683.131 262.128L692.254 258.138L702.291 253.244L706.985 250.995L710.804 248.892Z" fill="#050402"/>
<ellipse cx="3.88648" cy="3.53354" rx="3.88648" ry="3.53354" transform="matrix(0.19901 1.05828 0.846378 -0.301027 587.271 274.2)" fill="#050402"/>
<ellipse cx="1.83325" cy="1.66676" rx="1.83325" ry="1.66676" transform="matrix(0.19901 1.05828 0.846378 -0.301027 589.26 275.812)" fill="#F4F4F4"/>
<path d="M601.732 102.672L609.873 100.84L613.176 100.625L616.545 100.685L604.066 104.162L603.232 104.589L602.5 105.226L601.645 106.341L601.1 107.69L596.331 197.978L596.863 203.942L597.004 205.517L597.396 206.65L598.141 207.552L598.957 208.328L600.081 208.823L601.067 209.171L601.824 209.271L610.67 207.892L611.913 207.396L613.253 206.599L614.374 205.667L615.726 204.069L614.444 206.455L613.645 207.732L613.077 208.342L612.263 208.993L610.804 209.868L610.206 210.14L609.643 210.349L603.113 212.08L602.432 212.367L601.808 212.815L601.25 213.537L600.875 214.457L600.756 215.448L600.8 216.411L600.912 223.245L601.133 228.975L601.298 234.543L601.338 241.504L601.458 249.364L601.11 259.458L601.09 259.806L600.797 260.472L599.203 261.698L596.832 263.187L595.005 264.038L593.179 264.888L592.674 264.833L592.189 264.431L591.956 264.057L591.744 263.335L591.598 262.164L591.084 250.83L590.877 242.47L591.139 235.631L591.694 226.971L592.085 219.253L592.567 211.634L593.04 203.902L593.502 196.058L594.157 186.182L594.916 174.69L595.9 160.59L596.613 149.049L597.453 135.202L598.029 123.512L598.66 111.985L598.948 108.224L599.252 106.517L599.694 104.958L600.104 103.975L600.735 103.126L601.205 102.818L601.732 102.672Z" fill="#F4F4F4"/>
<path d="M595.244 212.78L599.015 214.085L598.219 215.875L597.363 217.904L596.618 220.257L596.056 222.807L594.04 237.424L595.244 212.78Z" fill="#050402"/>
<path d="M619.087 102.197L618.117 101.561L619.065 102.886L619.601 103.766L619.927 104.625L620.033 105.349L616.304 200.316L620.947 105.823L620.867 104.923L620.521 103.839L620.042 103.121L619.087 102.197Z" fill="#F4F4F4"/>
<path d="M601.622 168.874L602.039 118.666L597.476 197.784L597.447 199.788L597.552 201.426L597.729 202.938L597.962 203.698L598.294 204.156L598.789 204.587L599.31 204.841L604.232 205.552L603.128 192.262L601.854 177.058L601.622 168.874Z" fill="#F4F4F4"/>
<path d="M605.771 205.578L602.682 177.033L607.37 203.024L607.552 204.136L607.664 204.459L607.858 204.769L608.133 205.065L608.399 205.249L608.572 205.334L609.978 205.725L610.233 205.796L610.734 205.825L611.107 205.819L611.389 205.715L611.081 205.995L610.764 206.163L610.401 206.281L610.028 206.287L605.771 205.578Z" fill="#F4F4F4"/>
<path d="M599.596 292.444L600.033 287.884L599.723 288.131L598.858 288.533L598.059 288.599L597.26 288.665L596.46 288.731L595.416 288.707L594.128 288.592L592.905 288.142L592.237 287.535L593.079 290.42L593.185 290.826L593.511 292.784L593.682 294.502L593.786 295.874L593.503 300.393L593.029 302.681L592.353 304.896L591.594 307.103L590.632 309.237L589.86 310.819L588.918 312.5L588.476 313.144L587.559 314.26L586.774 315.216L586.196 316.132L585.588 317.728L585.345 318.559L585.325 319.012L585.348 319.411L585.575 319.885L585.928 320.312L586.324 320.686L586.682 321L587.286 321.335L587.852 321.609L588.505 321.778L589.163 321.833L589.826 321.776L590.412 321.598L591.381 321.168L591.677 321.023L591.803 320.976L591.929 320.93L592.016 320.824L592.583 320.133L593.312 318.605L593.619 317.268L594.057 315.771L595.224 312.746L596.245 310.22L596.483 309.502L596.732 308.558L597.351 305.77L598.132 302.145L598.792 298.453L599.596 292.444Z" fill="#F4F4F4"/>
<path d="M586.138 319.306L586.076 318.847L586.096 318.394L586.455 317.743L587.012 317.279L587.56 317.041L588.629 317.131L589.617 317.214L590.396 317.336L591.247 317.692L591.851 318.027L592.127 318.334L592.315 318.747L592.261 319.026L592.169 319.246L591.732 319.777L591.049 320.287L589.964 320.537L589.34 320.655L588.72 320.659L587.98 320.597L587.409 320.435C587.275 320.348 586.983 320.161 586.887 320.108C586.79 320.054 586.553 319.871 586.447 319.787L586.138 319.306Z" fill="#050402"/>
<path d="M744.116 447.381L743.855 446.662C743.725 446.307 743.636 445.938 743.588 445.563L742.725 438.841L742.102 431.555L741.167 415.269L740.232 401.982L739.297 389.125L738.985 383.982V378.41L738.674 366.838V360.409L738.985 350.551L739.92 310.693V310.286C739.92 308.845 739.816 307.405 739.609 305.978L740.752 307.236C741.028 307.539 741.337 307.81 741.675 308.042C742.164 308.378 742.706 308.63 743.278 308.787L743.972 308.978L745.53 309.216C746.36 309.343 747.198 309.407 748.037 309.407C749.681 309.407 751.315 309.163 752.887 308.682L753.321 308.55L754.132 308.271C755.252 307.886 756.336 307.406 757.373 306.835L758.619 305.978L757.373 307.692L755.814 309.835L754.879 311.55L753.944 313.264L753.321 314.55L753.009 315.407L752.386 317.121C751.972 318.547 751.695 320.009 751.561 321.487L751.451 322.693V327.408V332.551V336.408L751.763 338.98V347.551L751.451 354.409L751.14 359.123V359.902C751.14 360.238 751.198 360.571 751.313 360.886C751.405 361.138 751.531 361.376 751.689 361.593C751.943 361.942 752.115 362.344 752.192 362.768L752.298 363.352C752.357 363.675 752.386 364.003 752.386 364.331V375.838V383.553L752.075 390.41L751.763 395.553L751.451 401.125L751.14 406.697L750.828 412.697L750.516 418.269L750.205 422.126L749.581 427.269L748.646 434.984L747.712 442.27L747.124 447.115C747.1 447.312 747.044 447.504 746.957 447.683L746.8 448.007C746.595 448.43 746.166 448.699 745.696 448.699C745.389 448.699 745.093 448.584 744.866 448.376L744.644 448.173C744.407 447.955 744.226 447.684 744.116 447.381Z" fill="#F4F4F4"/>
<path d="M754.256 428.127L753.01 435.413L752.386 438.413L751.452 441.413L751.123 442.543C750.927 443.217 750.674 443.874 750.368 444.505C749.846 445.581 749.173 446.577 748.369 447.462L748.023 447.842L748.148 447.628C748.893 446.347 749.479 444.979 749.893 443.556L751.14 437.127L751.452 432.841L752.386 422.127L753.633 408.84L753.945 401.554L754.256 395.751L754.88 382.696V374.124L754.619 365.151C754.585 363.992 754.464 362.837 754.256 361.695L754.091 361.011C753.994 360.614 753.821 360.239 753.581 359.909L753.546 359.862C753.397 359.657 753.277 359.431 753.191 359.193C753.071 358.864 753.016 358.516 753.029 358.166L753.321 350.123V341.552V339.206C753.321 338.485 753.269 337.765 753.166 337.051C753.062 336.338 753.01 335.618 753.01 334.897V327.408L753.321 322.694C753.529 320.983 753.891 319.294 754.404 317.649L754.568 317.122C755.19 315.696 755.939 314.329 756.806 313.038L759.243 309.407L757.061 314.979L756.438 317.122L756.126 319.265L755.815 322.694L755.503 326.122V328.265V332.123V335.966C755.503 336.545 755.555 337.124 755.659 337.694C755.762 338.265 755.815 338.843 755.815 339.423V340.694V346.695L756.126 350.123L756.438 352.266L757.996 361.695L758.619 373.696V381.839L757.684 401.126L757.061 409.269L756.438 413.555L754.256 428.127Z" fill="#F4F4F4"/>
<path d="M738.908 299.943L738.362 290.549L738.05 265.691L738.362 261.833L738.985 256.69L739.92 248.547L740.855 240.404L742.102 230.118L742.413 227.546V216.101V214.743C742.413 214.14 742.308 213.541 742.102 212.974L741.79 212.117L739.608 206.545L739.297 205.259C739.089 204.119 738.985 202.962 738.985 201.803V200.545C739.193 198.548 739.555 196.57 740.068 194.629L740.543 192.83L742.102 188.116L743.036 184.258L743.472 182.461C744.012 180.234 744.387 177.969 744.595 175.687V165.829L744.283 160.686L743.971 158.972L743.348 156.829C742.934 155.405 742.348 154.038 741.603 152.757L741.478 152.543C740.857 151.689 740.13 150.918 739.314 150.249L724.338 137.971L723.918 137.538C723.373 136.975 722.953 136.304 722.685 135.569C722.541 135.171 722.442 134.758 722.391 134.339L722.156 132.399V130.256V126.399V123.827L722.468 121.256L723.091 117.827L724.026 111.398L724.338 110.112L725.584 105.826L726.831 102.826L729.012 98.9688C730.256 97.2588 731.667 95.6775 733.226 94.2486L733.687 93.8257L736.492 91.6828L739.92 89.5398L743.036 87.8255L745.841 86.1111C746.877 85.2561 747.825 84.2989 748.669 83.2539L748.961 82.8927C749.995 81.6128 750.898 80.2324 751.656 78.7722L752.074 77.9679L752.786 76.336C752.934 75.9959 753.053 75.6436 753.14 75.2831C753.26 74.7889 753.321 74.2822 753.321 73.7737V71.539C753.114 69.2607 752.647 67.0135 751.929 64.8414L751.451 63.3958L749.893 58.2527L749.269 56.1098L748.023 52.2524L747.088 47.9665L746.561 45.7925C746.29 44.6743 746.153 43.5278 746.153 42.3772V40.7354C746.153 40.132 746.258 39.5332 746.465 38.9661L746.93 38.0059C747.035 37.7893 747.159 37.5824 747.301 37.3877L747.632 36.932C747.684 36.86 747.749 36.7974 747.822 36.747L747.905 36.6899C747.982 36.6371 748.073 36.6089 748.166 36.6089C748.251 36.6089 748.334 36.6323 748.406 36.6764L748.501 36.7343C748.597 36.793 748.68 36.87 748.746 36.9611L748.853 37.1073C748.923 37.2034 748.982 37.3063 749.032 37.4144L750.516 40.6805L751.763 44.1092L754.567 52.2524L755.814 56.1098L756.437 58.6813L756.749 59.9671L757.06 62.9672L757.372 70.3528L757.684 77.5393L758.307 81.3966L759.554 86.1111L761.112 90.397L762.67 93.3972L764.54 96.3973L765.475 98.1117L766.41 99.826C767.032 101.252 767.529 102.729 767.896 104.241L767.968 104.541L768.095 105.411C768.218 106.258 768.28 107.113 768.28 107.969L768.16 109.616C768.032 111.372 767.76 113.115 767.345 114.827L765.163 122.113L763.364 128.297C763.339 128.385 763.22 128.396 763.179 128.314L760.489 122.971C760.489 122.97 760.489 122.969 760.489 122.969C760.903 120.688 761.112 118.375 761.112 116.058V113.887C761.112 112.231 760.963 110.578 760.667 108.949C760.341 107.157 759.839 105.402 759.167 103.709L758.307 101.54L757.314 99.6276C756.939 98.9057 756.472 98.2355 755.925 97.6335C755.437 97.0969 754.889 96.6184 754.291 96.2075L753.321 95.5401L752.315 94.8483C752.155 94.7383 751.985 94.6422 751.809 94.5613C751.368 94.359 750.888 94.2543 750.403 94.2543H748.334L746.007 94.5453C745.276 94.6367 744.56 94.8192 743.874 95.0885C743.112 95.3881 742.395 95.7924 741.744 96.2898L739.92 97.6831L737.738 99.826L735.245 102.826C734.001 104.538 732.886 106.341 731.91 108.219L731.817 108.398L730.571 110.969C729.743 113.532 729.225 116.184 729.03 118.87L729.012 119.113V121.643C729.012 122.241 729.066 122.837 729.173 123.426C729.274 123.978 729.421 124.521 729.612 125.049L729.947 125.97L731.194 128.97L732.057 130.751C732.726 132.13 733.559 133.424 734.539 134.603C735.216 135.418 735.961 136.175 736.765 136.866L738.05 137.971L739.065 138.668C740.043 139.341 741.128 139.846 742.274 140.161L742.32 140.174C743.209 140.418 744.127 140.542 745.049 140.542C746.395 140.542 747.728 140.278 748.973 139.764L749.247 139.651C749.883 139.389 750.49 139.06 751.058 138.669C751.733 138.205 752.347 137.658 752.885 137.041L753.265 136.606C753.717 136.088 754.131 135.538 754.505 134.96L756.437 131.97L758.619 127.684L760.098 123.616C760.128 123.534 760.242 123.527 760.281 123.605L762.981 128.968C762.981 128.969 762.981 128.971 762.981 128.972L762.082 130.981C761.025 133.344 759.65 135.551 757.995 137.542L754.941 141.419C754.278 142.262 753.686 143.158 753.172 144.1L752.538 145.263C752.23 145.828 751.855 146.355 751.422 146.831L751.305 146.961C750.782 147.535 750.169 148.019 749.489 148.393C749.135 148.588 748.766 148.751 748.385 148.882L747.711 149.114L747.36 149.194C746.351 149.426 745.319 149.543 744.283 149.543H743.3C742.918 149.543 742.537 149.499 742.164 149.414L742.091 149.397C741.281 149.212 740.533 148.819 739.92 148.257L731.817 140.542L729.012 137.113L727.707 135.019C727.331 134.416 727 133.786 726.716 133.135C726.378 132.36 726.107 131.557 725.908 130.736L725.584 129.399L724.999 127.386C724.974 127.3 724.934 127.219 724.881 127.146L724.833 127.079C724.718 126.921 724.534 126.827 724.338 126.827C724.142 126.827 723.958 126.921 723.843 127.079L723.836 127.089C723.757 127.197 723.714 127.328 723.714 127.462V131.113V132.135C723.714 132.596 723.756 133.056 723.838 133.509L723.92 133.956C723.99 134.345 724.114 134.722 724.286 135.078C724.526 135.573 724.858 136.019 725.263 136.391L725.584 136.685L740.09 149.713C740.593 150.165 741.194 150.493 741.846 150.672C742.222 150.776 742.611 150.828 743.001 150.828H744.537C745.609 150.828 746.677 150.684 747.711 150.4L748.515 150.179C749.016 150.041 749.499 149.845 749.955 149.594C750.533 149.276 751.061 148.873 751.521 148.399L751.539 148.381C751.895 148.013 752.208 147.607 752.473 147.17L753.632 145.257L754.879 142.685L753.944 144.828L749.893 157.686L747.399 169.686L745.218 186.401L744.906 202.688L745.218 217.26L745.841 224.975L747.399 235.689C749.264 242.527 751.862 249.142 755.149 255.421L755.814 256.69L758.619 261.405C759.443 263.104 759.943 264.942 760.095 266.825L760.177 267.834V292.263V296.508C760.177 297.106 760.123 297.702 760.016 298.291C759.916 298.843 759.769 299.386 759.577 299.914L759.242 300.835L759.081 301.167C758.773 301.802 758.41 302.408 757.995 302.978C757.581 303.548 757.11 304.075 756.591 304.551L756.437 304.692L756.277 304.803C755.556 305.298 754.771 305.694 753.944 305.978L752.386 306.407L752.035 306.487C751.025 306.719 749.993 306.835 748.958 306.835C747.922 306.835 746.89 306.719 745.881 306.487L745.53 306.407L743.971 305.978L741.478 305.121C740.865 304.84 740.333 304.403 739.937 303.858C739.72 303.559 739.544 303.231 739.418 302.884L739.297 302.549C739.089 301.694 738.959 300.822 738.908 299.943Z" fill="#F4F4F4"/>
<path d="M754.879 144.399L753.944 147.399L751.451 155.542L750.516 158.971L749.269 163.685L748.022 169.686L747.711 172.257L746.464 181.686L745.841 186.401V188.115V191.972L745.529 200.116V202.687L745.841 217.259L746.153 221.974L746.776 226.688L747.711 231.831L748.646 236.974L749.892 241.689L751.139 245.546L753.009 249.404L754.567 252.404L756.749 256.261L759.553 260.547L760.135 261.546C760.576 262.305 760.905 263.123 761.112 263.976L761.423 266.119L761.735 297.834L762.67 293.12L763.916 281.119L764.572 275.105C764.758 273.402 764.815 271.688 764.741 269.977C764.608 266.848 764.041 263.753 763.058 260.78L762.981 260.547L761.423 257.118L759.242 253.261L758.687 252.346C756.982 249.532 755.511 246.583 754.29 243.528C753.229 240.877 752.36 238.153 751.687 235.378L751.139 233.117L750.881 231.701C749.809 225.8 749.269 219.814 749.269 213.816V200.116L750.516 179.972L752.385 166.257L753.944 156.399L755.814 148.256L757.683 141.827L758.307 140.113L759.242 137.97L760.488 135.398L759.553 136.684L756.437 140.97L756.375 141.083C755.794 142.149 755.294 143.258 754.879 144.399Z" fill="#F4F4F4"/>
<path d="M761.111 253.69C761.111 253.788 761.281 254.029 761.548 254.346C762.48 255.452 764.228 254.708 764.228 253.262L764.539 250.261L765.474 242.975L767.344 230.546L768.591 221.974L770.772 214.26L772.33 208.688L773.265 205.259L775.447 200.116C776.276 198.12 777.277 196.199 778.437 194.375L778.875 193.687C780.325 191.694 781.993 189.868 783.848 188.244L784.485 187.687C786.973 185.976 789.605 184.483 792.35 183.224L792.899 182.973L798.509 180.401L802.248 178.687L804.822 177.229C806.635 176.203 808.354 175.02 809.961 173.694C811.465 172.453 812.865 171.091 814.147 169.622L815.961 167.543L818.766 163.258C820.01 160.975 821.081 158.602 821.97 156.158L822.194 155.543L823.129 151.257L824.063 146.542L824.415 143.479C824.804 140.097 824.951 136.691 824.855 133.288L824.821 132.06C824.732 128.863 824.374 125.679 823.752 122.541L823.316 120.744C822.987 119.384 822.393 118.102 821.57 116.97L821.551 116.948C820.537 115.833 819.293 114.951 817.905 114.364C816.622 113.821 815.243 113.541 813.849 113.541H813.156L805.761 113.816C803.033 113.917 800.355 114.581 797.896 115.765C796.235 116.564 794.471 117.128 792.654 117.44L790.406 117.827L785.731 118.256H783.003C781.922 118.256 780.849 118.061 779.837 117.681L779.617 117.599C778.513 117.185 777.514 116.531 776.693 115.684L776.083 115.012C775.479 114.348 774.624 113.97 773.726 113.97C773.219 113.97 772.718 114.091 772.267 114.324L770.461 115.255L769.837 115.684C769.423 115.969 769.038 116.294 768.687 116.656L768.554 116.793C768.165 117.195 767.832 117.647 767.564 118.138C767.212 118.783 766.978 119.485 766.873 120.211L766.854 120.342C766.765 120.948 766.758 121.564 766.832 122.172L766.843 122.266C766.968 123.296 767.302 124.29 767.823 125.187L767.856 125.243C768.137 125.726 768.469 126.179 768.845 126.593L769.837 127.685L772.642 130.685L774.281 132.037C775.26 132.844 776.101 133.805 776.772 134.882C777.34 135.794 777.781 136.78 778.081 137.812L778.325 138.652C778.691 139.908 778.919 141.201 779.005 142.507L779.187 145.257V163.18C779.187 166.94 778.874 170.693 778.252 174.401L776.693 179.973L773.889 187.259L772.019 191.973L769.526 198.831L767.967 204.402L765.786 210.831L763.604 218.546C762.773 221.546 761.049 227.632 760.8 227.975C760.55 228.318 758.203 232.689 757.06 234.832L755.016 237.643C754.345 238.565 754.177 239.761 754.567 240.832C756.226 244.826 758.29 248.63 760.444 252.379C760.847 253.082 761.111 253.583 761.111 253.69Z" fill="#F4F4F4"/>
<path d="M771.804 123.021L772.019 122.652C772.213 122.318 772.57 122.113 772.956 122.113C773.16 122.113 773.359 122.17 773.531 122.278L776.144 123.911C776.511 124.14 776.861 124.398 777.189 124.68L778.136 125.494C778.822 126.083 779.669 126.454 780.568 126.557L781.414 126.654C782.362 126.762 783.303 126.398 783.931 125.678L784.567 124.949C784.714 124.781 784.927 124.684 785.15 124.684C785.622 124.684 785.984 125.103 785.916 125.57L785.781 126.499C785.75 126.715 785.673 126.923 785.558 127.109L784.633 128.592C784.123 129.411 783.734 130.301 783.48 131.232L783.375 131.619C783.079 132.706 782.928 133.827 782.928 134.953V136.685L782.305 151.686L781.37 139.256L780.435 135.828L780.219 135.291C779.333 133.098 778.03 131.097 776.384 129.399L772.111 125.251C771.509 124.666 771.382 123.747 771.804 123.021Z" fill="#050402"/>
<path d="M820.637 123.827L819.915 121.445C819.634 120.517 818.344 120.452 817.972 121.348C817.881 121.566 817.868 121.807 817.934 122.034L818.343 123.441C818.418 123.698 818.512 123.949 818.626 124.19C819.569 126.19 820.967 129.046 821.26 130.256C821.325 130.526 821.996 133.39 822.519 135.502C822.549 135.621 822.719 135.591 822.708 135.469L822.343 131.459C822.245 130.373 822.057 129.297 821.783 128.242L820.637 123.827Z" fill="#050402"/>
<path d="M780.746 180.401L778.715 185.986C778.679 186.086 778.803 186.166 778.879 186.092L780.746 184.258L783.862 181.686L788.225 178.686L798.417 173.589C798.44 173.578 798.432 173.543 798.407 173.543H797.629C796.763 173.543 795.899 173.469 795.046 173.323C794.24 173.184 793.446 172.981 792.673 172.715L791.342 172.257L787.602 170.543L786.044 169.686C785.219 169.118 784.496 168.415 783.908 167.605L783.551 167.114L782.485 165.649C782.428 165.57 782.304 165.611 782.304 165.707V171.4C782.097 174.251 781.625 177.077 780.894 179.841L780.746 180.401Z" fill="#050402"/>
<path d="M787.386 160.853L786.961 160.101C785.742 157.946 785.012 155.549 784.823 153.08L784.64 150.693C784.538 149.356 784.533 148.014 784.625 146.676L784.922 142.393C785.047 140.595 785.396 138.819 785.962 137.107C786.431 135.687 787.047 134.318 787.799 133.025L789.161 130.684L791.519 126.852C792.231 125.695 793.038 124.598 793.932 123.574L795.364 121.933C796.004 121.199 796.748 120.565 797.573 120.049C799.005 119.154 800.642 118.64 802.329 118.558L805.257 118.414C807.37 118.31 809.473 118.766 811.354 119.736C812.751 120.456 813.992 121.444 815.009 122.642L815.853 123.637C817.164 125.182 818.213 126.93 818.96 128.814L819.702 130.684L820.086 132.267C820.659 134.632 820.949 137.058 820.949 139.491C820.949 141.331 820.783 143.167 820.454 144.977L820.014 147.4L818.557 152.267C818.075 153.876 817.446 155.437 816.679 156.932L815.565 159.103C814.594 160.995 813.246 162.67 811.605 164.024C810.159 165.218 808.51 166.141 806.736 166.751L805.55 167.159C803.175 167.975 800.642 168.231 798.151 167.904L797.772 167.855C796.198 167.649 794.67 167.177 793.255 166.459C790.788 165.21 788.747 163.259 787.386 160.853Z" fill="#050402"/>
<ellipse cx="749.27" cy="289.263" rx="6.2329" ry="8.57181" fill="#050402"/>
<ellipse cx="749.269" cy="289.263" rx="3.73974" ry="5.14309" fill="#F4F4F4"/>
<path d="M230.524 443.095L230.263 442.375C230.134 442.02 230.044 441.651 229.996 441.276L229.133 434.555L228.51 427.268L227.575 410.982L226.64 397.696L225.705 384.838L225.394 379.695V374.123L225.082 362.551V356.122L225.394 346.265L226.329 306.406V306C226.329 304.558 226.224 303.118 226.017 301.691L227.161 302.95C227.436 303.253 227.746 303.523 228.083 303.755C228.572 304.091 229.114 304.343 229.686 304.501L230.38 304.692L231.939 304.93C232.768 305.056 233.606 305.12 234.445 305.12C236.089 305.12 237.724 304.876 239.295 304.396L239.729 304.263L240.541 303.984C241.66 303.599 242.744 303.119 243.781 302.549L245.027 301.691L243.781 303.406L242.222 305.549L241.288 307.263L240.353 308.977L239.729 310.263L239.418 311.12L238.794 312.835C238.38 314.26 238.103 315.722 237.969 317.2L237.859 318.406V323.121V328.264V332.121L238.171 334.693V343.265L237.859 350.122L237.548 354.837V355.616C237.548 355.951 237.607 356.284 237.721 356.599C237.813 356.851 237.94 357.09 238.097 357.307C238.351 357.656 238.523 358.057 238.6 358.482L238.706 359.066C238.765 359.389 238.794 359.716 238.794 360.044V371.552V379.266L238.483 386.124L238.171 391.267L237.859 396.839L237.548 402.41L237.236 408.41L236.925 413.982L236.613 417.839L235.99 422.983L235.055 430.697L234.12 437.983L233.533 442.828C233.509 443.026 233.452 443.218 233.365 443.397L233.209 443.72C233.003 444.143 232.574 444.412 232.104 444.412C231.797 444.412 231.501 444.297 231.275 444.089L231.053 443.886C230.815 443.668 230.634 443.397 230.524 443.095Z" fill="#F4F4F4"/>
<path d="M240.665 423.839L239.418 431.125L238.795 434.125L237.86 437.126L237.531 438.255C237.335 438.93 237.082 439.586 236.776 440.218C236.255 441.294 235.582 442.289 234.777 443.174L234.432 443.554L234.556 443.341C235.301 442.059 235.888 440.692 236.302 439.269L237.548 432.84L237.86 428.554L238.795 417.839L240.041 404.553L240.353 397.267L240.665 391.464L241.288 378.409V369.837L241.027 360.864C240.993 359.704 240.872 358.549 240.665 357.408L240.499 356.724C240.402 356.326 240.229 355.952 239.989 355.621L239.955 355.574C239.805 355.369 239.686 355.144 239.599 354.905C239.479 354.576 239.424 354.228 239.437 353.879L239.73 345.836V337.264V334.918C239.73 334.197 239.678 333.477 239.574 332.764C239.47 332.05 239.418 331.33 239.418 330.61V323.12L239.73 318.406C239.937 316.695 240.299 315.007 240.812 313.361L240.976 312.834C241.598 311.409 242.347 310.042 243.214 308.75L245.651 305.12L243.469 310.691L242.846 312.834L242.534 314.977L242.223 318.406L241.911 321.835V323.978V327.835V331.678C241.911 332.258 241.963 332.836 242.067 333.407C242.171 333.977 242.223 334.555 242.223 335.135V336.407V342.407L242.534 345.836L242.846 347.979L244.404 357.408L245.028 369.408V377.551L244.093 396.838L243.469 404.981L242.846 409.267L240.665 423.839Z" fill="#F4F4F4"/>
<path d="M225.316 295.656L224.77 286.262L224.458 261.404L224.77 257.547L225.393 252.404L226.328 244.26L227.263 236.117L228.51 225.831L228.821 223.259V211.815V211.103C228.821 210.494 228.759 209.887 228.635 209.291C228.552 208.889 228.439 208.494 228.299 208.108L228.198 207.83L226.017 202.258L225.705 200.973C225.498 199.832 225.393 198.675 225.393 197.516V196.258C225.601 194.261 225.963 192.283 226.476 190.342L226.952 188.544L228.51 183.829L229.445 179.972L229.88 178.175C230.42 175.947 230.795 173.683 231.003 171.4V161.542L230.691 156.399L230.38 154.685L229.756 152.542C229.342 151.119 228.756 149.751 228.011 148.47L227.886 148.256C227.266 147.402 226.538 146.632 225.722 145.962L210.746 133.684L210.326 133.251C209.781 132.689 209.361 132.018 209.094 131.282C208.949 130.885 208.85 130.472 208.8 130.052L208.564 128.112V125.969V122.112V119.54L208.876 116.969L209.499 113.54L210.434 107.111L210.746 105.826L211.993 101.54L213.239 98.5395L215.421 94.6822C216.664 92.9721 218.076 91.3909 219.634 89.962L220.095 89.5391L222.9 87.3962L226.328 85.2532L229.445 83.5389L232.249 81.8245C233.286 80.9695 234.233 80.0123 235.077 78.9673L235.369 78.6061C236.403 77.3262 237.306 75.9458 238.065 74.4856L238.482 73.6813L239.194 72.0494C239.343 71.7093 239.461 71.357 239.549 70.9964C239.668 70.5023 239.729 69.9956 239.729 69.4871V67.2524C239.522 64.9741 239.055 62.7269 238.337 60.5547L237.859 59.1092L236.301 53.9661L235.678 51.8231L234.431 47.9658L233.496 43.6799L232.969 41.5059C232.698 40.3877 232.561 39.2412 232.561 38.0906V36.4488C232.561 35.8454 232.667 35.2466 232.873 34.6795L233.338 33.7193C233.443 33.5027 233.567 33.2958 233.709 33.1011L234.04 32.6454C234.093 32.5734 234.157 32.5108 234.23 32.4603L234.313 32.4033C234.39 32.3505 234.481 32.3223 234.574 32.3223C234.659 32.3223 234.742 32.3456 234.814 32.3898L234.909 32.4477C235.005 32.5064 235.088 32.5834 235.155 32.6744L235.261 32.8206C235.331 32.9167 235.391 33.0196 235.44 33.1278L236.924 36.3939L238.171 39.8226L240.976 47.9658L242.222 51.8231L242.845 54.3947L243.157 55.6805L243.469 58.6806L243.78 66.0662L244.092 73.2527L244.715 77.11L245.962 81.8245L247.52 86.1104L249.078 89.1105L250.948 92.1107L251.883 93.825L252.818 95.5394C253.44 96.9653 253.937 98.4426 254.304 99.9546L254.376 100.254L254.503 101.124C254.626 101.972 254.688 102.827 254.688 103.683L254.568 105.329C254.44 107.086 254.168 108.829 253.753 110.54L251.571 117.826L249.773 124.011C249.747 124.098 249.628 124.109 249.587 124.028L246.897 118.684C246.897 118.684 246.897 118.683 246.897 118.682C247.312 116.402 247.52 114.089 247.52 111.771V109.6C247.52 107.944 247.371 106.292 247.075 104.663C246.749 102.871 246.247 101.116 245.575 99.4225L244.715 97.2538L243.722 95.341C243.347 94.6191 242.88 93.9489 242.333 93.3469C241.845 92.8103 241.297 92.3317 240.699 91.9209L239.729 91.2535L238.723 90.5617C238.563 90.4516 238.394 90.3556 238.217 90.2747C237.776 90.0724 237.296 89.9677 236.811 89.9677H234.743L232.415 90.2587C231.684 90.3501 230.968 90.5326 230.282 90.8019C229.52 91.1015 228.803 91.5058 228.152 92.0032L226.328 93.3964L224.147 95.5394L221.654 98.5395C220.409 100.251 219.294 102.054 218.318 103.933L218.225 104.111L216.979 106.683C216.151 109.245 215.634 111.897 215.438 114.583L215.421 114.826V117.356C215.421 117.954 215.474 118.551 215.581 119.139C215.682 119.691 215.829 120.234 216.021 120.762L216.356 121.683L217.602 124.684L218.465 126.464C219.134 127.844 219.967 129.137 220.947 130.316C221.625 131.131 222.369 131.888 223.173 132.579L224.458 133.684L225.473 134.382C226.452 135.055 227.536 135.559 228.682 135.874L228.729 135.887C229.617 136.132 230.535 136.256 231.457 136.256C232.803 136.256 234.136 135.991 235.381 135.478L235.655 135.365C236.292 135.102 236.899 134.773 237.466 134.383C238.141 133.919 238.755 133.372 239.293 132.755L239.673 132.319C240.125 131.801 240.54 131.251 240.913 130.674L242.845 127.684L245.027 123.398L246.506 119.33C246.536 119.247 246.65 119.24 246.689 119.319L249.389 124.682C249.39 124.683 249.39 124.684 249.389 124.685L248.49 126.695C247.433 129.057 246.058 131.265 244.404 133.255L241.35 137.132C240.686 137.975 240.094 138.872 239.581 139.813L238.946 140.976C238.638 141.542 238.264 142.068 237.831 142.544L237.713 142.674C237.191 143.248 236.577 143.733 235.897 144.107C235.544 144.301 235.174 144.465 234.793 144.596L234.119 144.827L233.768 144.908C232.759 145.139 231.727 145.256 230.691 145.256H229.708C229.326 145.256 228.945 145.213 228.572 145.127L228.499 145.111C227.689 144.925 226.941 144.532 226.328 143.97L218.225 136.256L215.421 132.827L214.115 130.733C213.739 130.129 213.408 129.5 213.124 128.848C212.786 128.073 212.516 127.271 212.317 126.449L211.993 125.112L211.407 123.099C211.382 123.013 211.342 122.932 211.29 122.86L211.241 122.793C211.126 122.634 210.942 122.541 210.746 122.541C210.55 122.541 210.366 122.634 210.251 122.793L210.244 122.802C210.165 122.911 210.123 123.041 210.123 123.176V126.827V127.848C210.123 128.309 210.164 128.769 210.247 129.222L210.328 129.669C210.398 130.058 210.522 130.436 210.694 130.791C210.934 131.287 211.266 131.732 211.672 132.104L211.993 132.398L226.498 145.426C227.001 145.878 227.602 146.206 228.254 146.386C228.631 146.489 229.019 146.542 229.41 146.542H230.945C232.018 146.542 233.085 146.398 234.119 146.113L234.924 145.892C235.424 145.754 235.908 145.558 236.363 145.308C236.942 144.989 237.47 144.586 237.929 144.112L237.947 144.094C238.303 143.727 238.616 143.321 238.881 142.884L240.041 140.97L241.287 138.398L240.352 140.541L236.301 153.399L233.808 165.4L231.626 182.115L231.315 198.401L231.626 212.973L232.249 220.688L233.808 231.403C235.672 238.24 238.271 244.856 241.558 251.134L242.222 252.404L245.027 257.118C245.851 258.818 246.352 260.656 246.504 262.538L246.585 263.547V287.977V292.221C246.585 292.819 246.531 293.416 246.424 294.004C246.324 294.556 246.177 295.099 245.985 295.627L245.65 296.548L245.489 296.881C245.182 297.515 244.818 298.121 244.404 298.691C243.989 299.261 243.519 299.789 242.999 300.265L242.845 300.406L242.685 300.516C241.964 301.012 241.179 301.407 240.352 301.692L238.794 302.12L238.443 302.201C237.434 302.432 236.401 302.549 235.366 302.549C234.33 302.549 233.298 302.432 232.289 302.201L231.938 302.12L230.38 301.692L227.886 300.834C227.273 300.553 226.741 300.117 226.345 299.571C226.128 299.273 225.953 298.944 225.827 298.597L225.705 298.263C225.498 297.407 225.368 296.535 225.316 295.656Z" fill="#F4F4F4"/>
<path d="M241.287 140.112L240.352 143.112L237.859 151.256L236.924 154.684L235.677 159.399L234.431 165.399L234.119 167.971L232.872 177.4L232.249 182.114V183.828V187.686L231.938 195.829V198.401L232.249 212.973L232.561 217.687L233.184 222.402L234.119 227.545L235.054 232.688L236.301 237.402L237.547 241.26L239.417 245.117L240.975 248.117L243.157 251.974L245.962 256.26L246.543 257.26C246.984 258.018 247.313 258.836 247.52 259.689L247.831 261.832L248.143 293.548L249.078 288.833L250.325 276.833L250.981 270.819C251.166 269.116 251.223 267.402 251.15 265.69C251.016 262.562 250.449 259.467 249.467 256.493L249.39 256.26L247.831 252.832L245.65 248.974L245.095 248.059C243.39 245.245 241.919 242.296 240.698 239.241C239.638 236.59 238.768 233.867 238.095 231.092L237.547 228.83L237.29 227.414C236.217 221.513 235.677 215.527 235.677 209.529V195.829L236.924 175.685L238.794 161.97L240.352 152.113L242.222 143.97L244.092 137.541L244.715 135.826L245.65 133.683L246.896 131.112L245.962 132.398L242.845 136.683L242.784 136.796C242.202 137.863 241.702 138.971 241.287 140.112Z" fill="#F4F4F4"/>
<path d="M247.519 249.404C247.519 249.502 247.689 249.742 247.956 250.059C248.888 251.166 250.636 250.422 250.636 248.975L250.947 245.975L251.882 238.689L253.752 226.26L254.999 217.688L257.18 209.973L258.739 204.402L259.674 200.973L261.855 195.83C262.685 193.833 263.685 191.912 264.846 190.089L265.283 189.401C266.733 187.407 268.401 185.581 270.256 183.958L270.893 183.401C273.381 181.689 276.013 180.196 278.758 178.938L279.307 178.686L284.917 176.115L288.657 174.4L291.23 172.943C293.043 171.916 294.763 170.733 296.369 169.407C297.873 168.166 299.273 166.804 300.555 165.335L302.369 163.257L305.174 158.971C306.419 156.688 307.49 154.315 308.378 151.872L308.602 151.256L309.537 146.97L310.472 142.256L310.823 139.192C311.212 135.81 311.359 132.405 311.264 129.002L311.229 127.774C311.14 124.576 310.782 121.392 310.16 118.255L309.724 116.458C309.395 115.097 308.802 113.815 307.979 112.683L307.959 112.662C306.945 111.546 305.701 110.665 304.313 110.077C303.03 109.534 301.651 109.254 300.258 109.254H299.564L292.169 109.529C289.441 109.631 286.764 110.294 284.304 111.478C282.643 112.278 280.879 112.842 279.062 113.154L276.814 113.54L272.139 113.969H269.412C268.33 113.969 267.258 113.774 266.245 113.395L266.025 113.312C264.921 112.898 263.922 112.244 263.102 111.397L262.491 110.725C261.887 110.062 261.032 109.683 260.135 109.683C259.627 109.683 259.126 109.804 258.675 110.037L256.869 110.969L256.245 111.397C255.831 111.682 255.446 112.008 255.096 112.369L254.962 112.507C254.573 112.908 254.24 113.361 253.972 113.852C253.621 114.496 253.387 115.198 253.281 115.924L253.262 116.055C253.174 116.662 253.166 117.277 253.24 117.886L253.251 117.979C253.376 119.009 253.71 120.003 254.231 120.9L254.264 120.956C254.545 121.44 254.877 121.892 255.253 122.306L256.245 123.398L259.05 126.398L260.689 127.751C261.668 128.558 262.509 129.519 263.18 130.595C263.748 131.507 264.189 132.493 264.489 133.525L264.733 134.365C265.099 135.622 265.327 136.914 265.413 138.22L265.595 140.97V158.893C265.595 162.653 265.282 166.406 264.66 170.114L263.102 175.686L260.297 182.972L258.427 187.686L255.934 194.544L254.376 200.116L252.194 206.544L250.013 214.259C249.182 217.259 247.457 223.345 247.208 223.688C246.958 224.031 244.611 228.403 243.468 230.546L241.424 233.356C240.754 234.279 240.585 235.474 240.975 236.546C242.634 240.539 244.698 244.343 246.852 248.093C247.256 248.796 247.519 249.296 247.519 249.404Z" fill="#F4F4F4"/>
<path d="M258.21 118.734L258.425 118.365C258.619 118.032 258.976 117.826 259.363 117.826C259.566 117.826 259.765 117.883 259.938 117.991L262.55 119.624C262.917 119.854 263.267 120.111 263.595 120.393L264.542 121.207C265.228 121.797 266.076 122.167 266.975 122.27L267.82 122.367C268.768 122.476 269.71 122.111 270.337 121.392L270.973 120.663C271.12 120.494 271.333 120.398 271.556 120.398C272.028 120.398 272.39 120.816 272.322 121.283L272.187 122.212C272.156 122.429 272.08 122.637 271.964 122.823L271.04 124.305C270.529 125.125 270.141 126.014 269.887 126.945L269.781 127.333C269.485 128.419 269.335 129.54 269.335 130.666V132.398L268.711 147.399L267.776 134.97L266.842 131.541L266.625 131.005C265.739 128.811 264.437 126.811 262.79 125.112L258.517 120.964C257.915 120.379 257.788 119.46 258.21 118.734Z" fill="#050402"/>
<path d="M307.043 119.541L306.321 117.159C306.04 116.23 304.75 116.166 304.378 117.062C304.288 117.279 304.274 117.521 304.34 117.747L304.749 119.155C304.824 119.412 304.918 119.662 305.032 119.904C305.975 121.903 307.373 124.759 307.666 125.969C307.732 126.239 308.402 129.104 308.926 131.215C308.955 131.335 309.125 131.305 309.114 131.182L308.75 127.172C308.651 126.086 308.464 125.011 308.19 123.955L307.043 119.541Z" fill="#050402"/>
<path d="M267.154 176.114L265.123 181.7C265.087 181.8 265.212 181.88 265.288 181.805L267.154 179.972L270.271 177.4L274.634 174.4L284.826 169.303C284.849 169.292 284.84 169.257 284.815 169.257H284.037C283.172 169.257 282.308 169.183 281.455 169.037C280.648 168.898 279.855 168.695 279.081 168.429L277.75 167.971L274.01 166.257L272.452 165.4C271.627 164.832 270.905 164.129 270.316 163.319L269.959 162.828L268.893 161.363C268.836 161.284 268.712 161.324 268.712 161.421V167.114C268.505 169.965 268.033 172.791 267.302 175.554L267.154 176.114Z" fill="#050402"/>
<path d="M273.792 156.566L273.367 155.815C272.148 153.659 271.418 151.262 271.229 148.793L271.046 146.407C270.944 145.07 270.939 143.727 271.032 142.39L271.328 138.107C271.453 136.308 271.802 134.532 272.368 132.821C272.837 131.4 273.453 130.032 274.206 128.738L275.567 126.398L277.925 122.566C278.637 121.408 279.444 120.312 280.338 119.287L281.77 117.646C282.41 116.913 283.154 116.278 283.979 115.762C285.411 114.867 287.049 114.354 288.735 114.271L291.663 114.127C293.776 114.023 295.88 114.479 297.76 115.449C299.157 116.17 300.399 117.157 301.415 118.355L302.26 119.351C303.57 120.895 304.62 122.644 305.366 124.527L306.108 126.398L306.492 127.98C307.065 130.346 307.355 132.771 307.355 135.205C307.355 137.044 307.19 138.88 306.861 140.69L306.42 143.113L304.963 147.98C304.481 149.589 303.853 151.151 303.086 152.645L301.971 154.816C301 156.709 299.652 158.383 298.011 159.737C296.565 160.931 294.916 161.855 293.142 162.464L291.957 162.872C289.581 163.689 287.048 163.944 284.557 163.618L284.178 163.568C282.604 163.362 281.077 162.89 279.661 162.173C277.195 160.923 275.153 158.973 273.792 156.566Z" fill="#050402"/>
<ellipse cx="235.678" cy="284.977" rx="6.2329" ry="8.57181" fill="#050402"/>
<ellipse cx="235.677" cy="284.976" rx="3.73974" ry="5.14309" fill="#F4F4F4"/>
</svg>
