<svg width="24" height="23" viewBox="0 0 24 23" fill="none" xmlns="http://www.w3.org/2000/svg">
<path d="M12.2775 3.55728C12.2031 3.48417 12.104 3.44336 12.001 3.44336C11.898 3.44336 11.7989 3.48417 11.7245 3.55728L2.51953 12.5863C2.48044 12.6247 2.44934 12.6709 2.42811 12.722C2.40688 12.7731 2.39597 12.828 2.39603 12.8836L2.39453 21.3577C2.39453 21.7934 2.5631 22.2112 2.86316 22.5193C3.16322 22.8274 3.57018 23.0005 3.99453 23.0005H8.79952C9.01169 23.0005 9.21517 22.914 9.3652 22.7599C9.51523 22.6059 9.59951 22.3969 9.59951 22.1791V15.1969C9.59951 15.088 9.64166 14.9835 9.71667 14.9065C9.79168 14.8295 9.89343 14.7862 9.99951 14.7862H13.9995C14.1056 14.7862 14.2073 14.8295 14.2823 14.9065C14.3574 14.9835 14.3995 15.088 14.3995 15.1969V22.1791C14.3995 22.3969 14.4838 22.6059 14.6338 22.7599C14.7838 22.914 14.9873 23.0005 15.1995 23.0005H20.0025C20.4268 23.0005 20.8338 22.8274 21.1339 22.5193C21.4339 22.2112 21.6025 21.7934 21.6025 21.3577V12.8836C21.6025 12.828 21.5916 12.7731 21.5704 12.722C21.5492 12.6709 21.5181 12.6247 21.479 12.5863L12.2775 3.55728Z" fill="#050402"/>
<path d="M23.7455 10.8916L20.0055 7.21779V1.64286C20.0055 1.425 19.9212 1.21607 19.7712 1.06202C19.6211 0.907972 19.4176 0.821429 19.2055 0.821429H16.8055C16.5933 0.821429 16.3898 0.907972 16.2398 1.06202C16.0898 1.21607 16.0055 1.425 16.0055 1.64286V3.28572L13.1095 0.442545C12.8385 0.161205 12.4355 0 12 0C11.566 0 11.164 0.161205 10.893 0.443058L0.258018 10.8906C-0.0529809 11.1986 -0.0919808 11.7054 0.191018 12.0391C0.262084 12.1233 0.349099 12.1918 0.446767 12.2404C0.544436 12.289 0.650715 12.3167 0.759137 12.3218C0.867559 12.3269 0.975857 12.3093 1.07744 12.27C1.17902 12.2308 1.27176 12.1707 1.35002 12.0935L11.725 1.91393C11.7994 1.84081 11.8985 1.8 12.0015 1.8C12.1045 1.8 12.2035 1.84081 12.278 1.91393L22.654 12.0935C22.8068 12.244 23.0115 12.3261 23.2233 12.3219C23.435 12.3177 23.6364 12.2274 23.7835 12.0709C24.0905 11.7444 24.065 11.2053 23.7455 10.8916Z" fill="#050402"/>
</svg>
