<svg width="24" height="31" viewBox="0 0 24 31" fill="none" xmlns="http://www.w3.org/2000/svg">
<g filter="url(#filter0_dd_99_153)">
<path d="M12 0C7.57714 0 4 3.5995 4 8.05C4 14.0875 12 23 12 23C12 23 20 14.0875 20 8.05C20 3.5995 16.4229 0 12 0ZM12 10.925C11.2422 10.925 10.5155 10.6221 9.9797 10.0829C9.44388 9.54377 9.14286 8.8125 9.14286 8.05C9.14286 7.2875 9.44388 6.55623 9.9797 6.01707C10.5155 5.4779 11.2422 5.175 12 5.175C12.7578 5.175 13.4845 5.4779 14.0203 6.01707C14.5561 6.55623 14.8571 7.2875 14.8571 8.05C14.8571 8.8125 14.5561 9.54377 14.0203 10.0829C13.4845 10.6221 12.7578 10.925 12 10.925Z" fill="#F4F4F4"/>
</g>
<defs>
<filter id="filter0_dd_99_153" x="0" y="0" width="24" height="31" filterUnits="userSpaceOnUse" color-interpolation-filters="sRGB">
<feFlood flood-opacity="0" result="BackgroundImageFix"/>
<feColorMatrix in="SourceAlpha" type="matrix" values="0 0 0 0 0 0 0 0 0 0 0 0 0 0 0 0 0 0 127 0" result="hardAlpha"/>
<feOffset dy="4"/>
<feGaussianBlur stdDeviation="2"/>
<feComposite in2="hardAlpha" operator="out"/>
<feColorMatrix type="matrix" values="0 0 0 0 0 0 0 0 0 0 0 0 0 0 0 0 0 0 0.25 0"/>
<feBlend mode="normal" in2="BackgroundImageFix" result="effect1_dropShadow_99_153"/>
<feColorMatrix in="SourceAlpha" type="matrix" values="0 0 0 0 0 0 0 0 0 0 0 0 0 0 0 0 0 0 127 0" result="hardAlpha"/>
<feOffset dy="4"/>
<feGaussianBlur stdDeviation="2"/>
<feComposite in2="hardAlpha" operator="out"/>
<feColorMatrix type="matrix" values="0 0 0 0 0 0 0 0 0 0 0 0 0 0 0 0 0 0 0.25 0"/>
<feBlend mode="normal" in2="effect1_dropShadow_99_153" result="effect2_dropShadow_99_153"/>
<feBlend mode="normal" in="SourceGraphic" in2="effect2_dropShadow_99_153" result="shape"/>
</filter>
</defs>
</svg>
