<svg width="36" height="36" viewBox="0 0 36 36" fill="none" xmlns="http://www.w3.org/2000/svg">
<path d="M18 36C27.9411 36 36 27.9411 36 18C36 8.05888 27.9411 0 18 0C8.05888 0 0 8.05888 0 18C0 27.9411 8.05888 36 18 36Z" fill="#4E4E4E"/>
<path d="M18.0006 32.442C25.9767 32.442 32.4426 25.9761 32.4426 18C32.4426 10.0239 25.9767 3.55798 18.0006 3.55798C10.0245 3.55798 3.55859 10.0239 3.55859 18C3.55859 25.9761 10.0245 32.442 18.0006 32.442Z" fill="#F4F4F4"/>
<path d="M13.8914 3.31797C11.9654 3.87597 9.26839 4.73097 6.38239 8.17797C3.53239 11.589 2.94439 15.552 2.76139 18.285C2.76139 18.285 1.11439 20.346 1.03639 19.962C0.415394 16.977 1.66939 10.305 4.94839 6.77697C8.76439 2.67297 13.7264 1.21797 15.5204 0.94497C15.8294 0.89697 14.4764 3.14997 13.8914 3.31797Z" fill="#F4F4F4"/>
<path d="M17.9993 31.6771C25.5529 31.6771 31.6763 25.5537 31.6763 18.0001C31.6763 10.4465 25.5529 4.32312 17.9993 4.32312C10.4457 4.32312 4.32227 10.4465 4.32227 18.0001C4.32227 25.5537 10.4457 31.6771 17.9993 31.6771Z" fill="#050402"/>
<path d="M18 9.29993V17.9999" stroke="#F4F4F4" stroke-miterlimit="10" stroke-linecap="round"/>
<path d="M18.0004 19.5182C18.8388 19.5182 19.5184 18.8385 19.5184 18.0002C19.5184 17.1618 18.8388 16.4822 18.0004 16.4822C17.1621 16.4822 16.4824 17.1618 16.4824 18.0002C16.4824 18.8385 17.1621 19.5182 18.0004 19.5182Z" fill="#A0A2A3"/>
<path d="M12.4629 14.8741L18.0009 18.0211" stroke="#A0A2A3" stroke-width="2" stroke-miterlimit="10" stroke-linecap="round"/>
<path d="M18.0012 28.8001V30.3001M18.0012 5.70007V7.20007M7.20117 18.0001H5.70117M30.3012 18.0001H28.8012" stroke="#F4F4F4" stroke-width="3" stroke-miterlimit="10"/>
<path d="M12.6026 27.354L11.8526 28.653M24.1526 7.34705L23.4026 8.64605M23.4026 27.354L24.1526 28.653M11.8526 7.34705L12.6026 8.64605M27.3566 23.4L28.6556 24.15M7.34961 11.85L8.64861 12.6M8.64861 23.4L7.34961 24.15M28.6556 11.85L27.3566 12.6" stroke="#A0A2A3" stroke-width="2" stroke-miterlimit="10"/>
</svg>
