<svg width="34" height="10" viewBox="0 0 34 10" fill="none" xmlns="http://www.w3.org/2000/svg">
<path d="M33.3272 8.01843L18.2559 0.253456C18.0765 0.16129 17.8821 0.0961595 17.6728 0.0580643C17.4635 0.0193546 17.2392 0 17 0C16.7608 0 16.5365 0.0193546 16.3272 0.0580643C16.1179 0.0961595 15.9235 0.16129 15.7441 0.253456L0.627968 8.01843C0.209323 8.23349 0 8.5023 0 8.82489C0 9.14747 0.224274 9.42396 0.672823 9.65438C1.12137 9.88479 1.64468 10 2.24274 10C2.84081 10 3.36412 9.88479 3.81266 9.65438L17 2.88018L30.1873 9.65438C30.606 9.86943 31.1215 9.97696 31.7339 9.97696C32.3475 9.97696 32.8786 9.86175 33.3272 9.63134C33.7757 9.40092 34 9.13211 34 8.82489C34 8.51767 33.7757 8.24885 33.3272 8.01843Z" fill="#050402"/>
</svg>
